<svg width="162" height="49" viewBox="0 0 162 49" fill="none" xmlns="http://www.w3.org/2000/svg">
<path d="M41.7025 28.0274V19.6566C41.7025 17.0082 43.0267 15.684 45.6751 15.684H51.9887L53.5731 16.9136V18.758H45.817C45.3441 18.758 45.1076 18.9945 45.1076 19.4674V28.2166C45.1076 28.6895 45.3441 28.926 45.817 28.926H53.5731V30.7704L51.9887 32H45.6751C43.0267 32 41.7025 30.6758 41.7025 28.0274ZM60.573 32C58.0191 32 56.7422 30.7467 56.7422 28.2402C56.7422 25.7337 58.0191 24.4804 60.573 24.4804H63.8362V23.1089C63.8362 22.6045 63.5839 22.3523 63.0795 22.3523H58.0664V20.5788L59.4852 19.5147H63.2687C65.8225 19.5147 67.0994 20.7916 67.0994 23.3454V32H60.573ZM60.0054 28.4057C60.0054 28.9102 60.2577 29.1624 60.7621 29.1624H63.8362V26.987H60.7621C60.2577 26.987 60.0054 27.2392 60.0054 27.7436V28.4057ZM70.9255 30.9359V29.1624H76.3642C76.9001 29.1624 77.1681 28.8629 77.1681 28.2639C77.1681 27.6491 76.9474 27.3022 76.506 27.2234L73.9522 26.7978C71.9344 26.451 70.9255 25.2844 70.9255 23.2981C70.9255 20.7758 72.2024 19.5147 74.7562 19.5147H78.4214L79.8402 20.5788V22.3523H74.9454C74.4094 22.3523 74.1414 22.6518 74.1414 23.2508C74.1414 23.8814 74.3857 24.2361 74.8744 24.3149L77.4046 24.7405C79.4067 25.0716 80.4077 26.2224 80.4077 28.1929C80.4077 30.731 79.1229 32 76.5533 32H72.3443L70.9255 30.9359ZM84.2103 28.1693V15.684H87.4736V19.5147H91.5407V22.3523H87.4736V28.4057C87.4736 28.9102 87.7258 29.1624 88.2302 29.1624H91.7772V30.9359L90.3584 32H88.0411C85.4873 32 84.2103 30.7231 84.2103 28.1693ZM95.0836 28.1693V23.3454C95.0836 20.7916 96.3606 19.5147 98.9144 19.5147H101.988C104.542 19.5147 105.819 20.7916 105.819 23.3454V26.9633H98.3469V28.4057C98.3469 28.9102 98.5991 29.1624 99.1035 29.1624H105.346V30.9359L103.927 32H98.9144C96.3606 32 95.0836 30.7231 95.0836 28.1693ZM98.3469 24.4568H102.556V23.1089C102.556 22.6045 102.304 22.3523 101.799 22.3523H99.1035C98.5991 22.3523 98.3469 22.6045 98.3469 23.1089V24.4568ZM109.887 27.4599V14.5016H113.15V27.7909C113.15 28.7683 113.655 29.3122 114.664 29.4225V32.2365C111.479 32.2365 109.887 30.6443 109.887 27.4599ZM118.153 27.4599V14.5016H121.416V27.7909C121.416 28.7683 121.921 29.3122 122.93 29.4225V32.2365C119.745 32.2365 118.153 30.6443 118.153 27.4599ZM126.419 28.1693V19.5147H129.682V28.4057C129.682 28.9102 129.935 29.1624 130.439 29.1624H133.892V19.5147H137.155V32H130.25C127.696 32 126.419 30.7231 126.419 28.1693ZM141.5 32V19.5147H155.735C158.289 19.5147 159.566 20.7916 159.566 23.3454V32H156.302V23.1089C156.302 22.6045 156.05 22.3523 155.546 22.3523H152.164V32H148.901V22.3523H144.763V32H141.5Z" fill="#FA1E51"/>
<path d="M120.9 45V38.1H124.07C125.09 38.1 125.6 38.61 125.6 39.63V40.32C125.6 40.5467 125.533 40.74 125.4 40.9L125.05 41.32L125.47 41.67C125.69 41.85 125.8 42.1167 125.8 42.47V43.47C125.8 44.49 125.29 45 124.27 45H120.9ZM121.74 44.24H124.28C124.733 44.24 124.96 44.0133 124.96 43.56V42.44C124.96 41.9867 124.733 41.76 124.28 41.76H121.74V44.24ZM121.74 41H124.08C124.533 41 124.76 40.7733 124.76 40.32V39.54C124.76 39.0867 124.533 38.86 124.08 38.86H121.74V41ZM126.636 39.94L126.726 39.8H127.416L128.936 44.3H129.136L130.656 39.8H131.346L131.436 39.94L128.996 47H128.306L128.216 46.86L128.886 45H128.386L126.636 39.94ZM136.063 45C135.057 45 134.553 44.4967 134.553 43.49C134.553 42.4833 135.057 41.98 136.063 41.98H137.893V41.2C137.893 40.7333 137.66 40.5 137.193 40.5H135.053V40.1L135.453 39.8H137.193C138.193 39.8 138.693 40.3 138.693 41.3V45H136.063ZM135.353 43.6C135.353 44.0667 135.587 44.3 136.053 44.3H137.893V42.63H136.053C135.587 42.63 135.353 42.8633 135.353 43.33V43.6ZM140.173 43.5V41.3C140.173 40.3 140.673 39.8 141.673 39.8H144.473V47H143.673V45H141.673C140.673 45 140.173 44.5 140.173 43.5ZM140.973 43.6C140.973 44.0667 141.206 44.3 141.673 44.3H143.673V40.5H141.673C141.206 40.5 140.973 40.7333 140.973 41.2V43.6ZM146.033 43.5V39.8H146.833V43.6C146.833 44.0667 147.067 44.3 147.533 44.3H149.533V39.8H150.333V45H147.533C146.533 45 146.033 44.5 146.033 43.5ZM151.893 38.83V37.89H152.773V38.83H151.893ZM151.933 45V39.8H152.733V45H151.933ZM154.295 43.58V37.6H155.095V43.66C155.095 44.12 155.328 44.3633 155.795 44.39V45.08C154.795 45.08 154.295 44.58 154.295 43.58ZM158.163 45C157.156 45 156.653 44.4967 156.653 43.49C156.653 42.4833 157.156 41.98 158.163 41.98H159.993V41.2C159.993 40.7333 159.759 40.5 159.293 40.5H157.153V40.1L157.553 39.8H159.293C160.293 39.8 160.793 40.3 160.793 41.3V45H158.163ZM157.453 43.6C157.453 44.0667 157.686 44.3 158.153 44.3H159.993V42.63H158.153C157.686 42.63 157.453 42.8633 157.453 43.33V43.6Z" fill="#9797AA"/>
<path d="M41.556 39.556C39.5154 41.602 37.0907 43.2245 34.4211 44.3304C31.7515 45.4363 28.8896 46.0037 26 46C13.85 46 4 36.15 4 24C4 11.85 13.85 1.99998 26 1.99998C28.8896 1.99631 31.7515 2.56371 34.4211 3.66959C37.0907 4.77547 39.5154 6.39801 41.556 8.44398" stroke="#FA1E51" stroke-width="4" stroke-linecap="round" stroke-linejoin="round"/>
<path d="M35.9 33.9C34.6013 35.2019 33.0582 36.2344 31.3592 36.938C29.6602 37.6416 27.8389 38.0025 26 38C18.268 38 12 31.732 12 24" stroke="#FA1E51" stroke-width="4" stroke-linecap="round"/>
<path d="M26 24H18" stroke="#FA1E51" stroke-width="4" stroke-linecap="round" stroke-linejoin="round"/>
<path fill-rule="evenodd" clip-rule="evenodd" d="M38.203 18.4053C38.8099 19.6686 37.785 21 36.3835 21C35.4815 21 34.6945 20.4245 34.266 19.6308C32.4443 16.2564 28.7881 13.9524 24.5747 13.9524C20.3613 13.9524 16.7051 16.2564 14.8834 19.6308C14.4549 20.4245 13.6679 21 12.7659 21C11.3645 21 10.3396 19.6686 10.9464 18.4053C13.3305 13.4421 18.5364 10 24.5747 10C30.6131 10 35.8189 13.4421 38.203 18.4053Z" fill="#FA1E51"/>
</svg>
